<?xml version="1.0" encoding="UTF-8" standalone="no"?>

<svg
	version="1.1"
	width="200"
	height="200"
	viewBox="0 0 200 200"
	xmlns="http://www.w3.org/2000/svg"
>
	<defs>
		<clipPath clipPathUnits="userSpaceOnUse">
			<rect
				style="opacity:0.46472;fill:#c2c28e;fill-opacity:1;stroke:#f8f8dd;stroke-width:0;stroke-linecap:round;stroke-linejoin:round;stroke-dasharray:none;stroke-opacity:0.984314"
				width="183.67015"
				height="183.67017"
				x="22.008427"
				y="29.035624"
			/>
		</clipPath>
		<clipPath clipPathUnits="userSpaceOnUse">
			<rect
				style="opacity:0.46472;fill:#c2c28e;fill-opacity:1;stroke:#f8f8dd;stroke-width:0;stroke-linecap:round;stroke-linejoin:round;stroke-dasharray:none;stroke-opacity:0.984314"
				width="169.20653"
				height="183.62062"
				x="21.853825"
				y="29.367157"
			/>
		</clipPath>
	</defs>
	<g transform="translate(-22,-29.367157)">
		<g>
			<path
				style="fill:#c2c28e"
				d="m 40.5388,170.86381 c -2.307086,-6.31829 -17.700683,-68.62716 -17.117341,-69.1913 0.421323,-0.40745 5.659791,-3.369282 10.609791,-5.550601 4.95,-2.181319 16.223756,-7.802669 25.778486,-12.262722 9.55473,-4.460053 20.17481,-8.796687 20.850178,-8.796687 0.829707,0 1.646596,6.240552 2.51884,14.294249 0.709994,6.555586 2.164377,11.234921 2.544463,11.849911 0.478684,0.77453 6.755552,-1.8544 21.551203,-6.018635 11.74807,-3.306493 21.08895,-4.99204 21.28601,-4.794981 0.75469,0.754686 15.25656,37.581706 14.91501,37.923246 C 143.0537,128.73803 127.1533,136.07743 80.5,155.3306 37.976311,172.87954 41.080645,172.34774 40.5388,170.86381 Z M 164.13258,115.0415 c -5.225,-0.73892 -12.92681,-1.63022 -17.43923,-2.25074 -8.13221,-1.1183 -9.09837,-1.02619 -10.23355,-4.46584 -0.6299,-1.9086 -2.40213,-6.24111 -2.20981,-6.38688 0.19231,-0.14578 9.82379,-3.232242 20.06597,-6.110249 21.13776,-5.939615 19.37252,-5.888839 26.5455,-4.022266 3.20537,0.834111 7.12853,2.63974 7.53643,2.988105 0.79069,0.675292 -11.94039,20.35511 -13.01299,20.14378 -0.3492,-0.0688 -6.02732,0.84301 -11.25232,0.10409 z M 85.570568,98.79598 c -1.851597,-4.906853 -3.091679,-23.728353 -3.90037,-24.537044 -0.55646,-0.55646 -5.809684,1.838856 -14.191029,5.811899 -7.599327,3.60234 -15.374464,6.107594 -15.644443,5.793068 -1.988598,-2.316722 3.070494,-9.525157 22.492107,-30.344413 11.779803,-12.627515 23.69825,-23.683896 23.838698,-23.543447 0.424699,0.424699 9.459969,45.944243 9.452839,47.734934 -0.01,2.398885 -21.217201,21.286153 -22.047802,19.085003 z"
				transform="translate(15.469824,8.3323684)"
			/>
			<path
				style="fill:#757551"
				d="m 140.94581,188.38339 -20.30721,-3.52847 14.06165,-16.14493 c 8.29812,-9.52751 17.03171,-15.21447 17.03171,-15.92414 0,-0.70967 -5.31715,-16.70738 -6.71462,-20.01556 -1.23416,-2.92157 -5.338,-19.56082 -5.10347,-19.79534 0.36632,-0.36633 33.51341,3.76224 34.27403,4.26459 0.15178,0.10024 -0.41976,17.04659 -1.80904,36.1423 -1.38928,19.09571 -2.83748,34.98274 -2.83748,36.03942 0,1.05668 -2.32263,1.8572 -3.01013,1.7965 -0.6875,-0.0607 -13.07187,-0.66008 -25.58544,-2.83437 z m -12.14559,-100.609546 -19.455,-8.612856 -5.14034,-22.7517 c -2.77494,-12.282184 -4.36383,-24.583674 -4.04294,-24.904557 0.56947,-0.569475 10.56873,4.092158 50.16374,24.61581 l 20.45159,10.001538 3.58042,10.532711 c 2.00257,5.891079 3.82324,12.68271 3.81448,13.09521 -0.009,0.4125 -2.30967,-0.0479 -3.54717,-0.03005 -1.2375,0.01785 -7.98144,1.976663 -14.36579,3.692374 l -11.77009,3.163064 z"
				transform="translate(15.469824,8.3323684)"
			/>
			<path
				style="fill:#353621"
				d="M 65.945514,205.78239 C 62.890547,201.77708 55.828871,192.62167 50.2529,185.43704 L 40.11477,172.37408 31.057385,137.99732 C 26.075823,119.09011 22,103.03295 22,102.31475 c 0,-0.7182 6.1875,-4.276809 13.75,-7.908024 7.5625,-3.631214 13.945858,-6.791582 14.185239,-7.02304 0.239382,-0.231457 0.689382,-2.193641 1,-4.360409 0.497346,-3.469314 3.35447,-6.928801 23.935203,-28.981427 12.853743,-13.773018 23.653743,-25.023905 24,-25.001973 0.346257,0.02193 16.829558,8.234432 36.629558,18.25 l 36,18.210123 4.33656,12.697655 4.33656,12.697655 5.42639,1.214373 5.42639,1.214372 -0.50242,4.587973 C 190.24715,100.43541 189.30597,116 188.43197,132.5 l -1.58909,30 -7.42144,13.86234 C 175.33965,183.98663 172,190.59757 172,191.05333 c 0,1.98051 -2.98091,1.95764 -18.81044,-0.14434 l -16.77955,-2.22814 -30.955,11.81537 C 88.429753,206.99467 73.825,212.48106 73,212.68818 c -0.927401,0.23284 -3.620329,-2.40333 -7.054486,-6.90579 z M 169.42291,187.75 c 0.94691,-5.99264 4.97573,-69.6847 4.44166,-70.21876 -0.75742,-0.75742 -30.6966,-4.7051 -32.9009,-4.3382 -1.6377,0.27259 -0.99369,2.48105 5.75195,19.7245 l 7.59615,19.41754 -2.90589,2.47431 c -6.00194,5.11054 -30.56907,29.36075 -30.15944,29.77038 0.53568,0.53569 40.11146,6.14799 44.45825,6.3047 2.87519,0.10365 3.25748,-0.21862 3.71822,-3.13447 z M 92,150.09888 c 33.2108,-13.74019 50.44593,-21.35635 50.34207,-22.24604 C 142.12061,125.95589 128.96869,91.642277 128.16138,90.855169 127.79762,90.500511 118.275,92.844277 107,96.063537 88.744376,99.704229 85.349557,110.09721 83.058389,91.25 81.579015,78.347794 81.081161,76 79.824601,76 78.652189,76 24.77172,100.82621 23.823903,101.80314 23.452049,102.18641 26.952707,116.9 31.603142,134.5 c 4.650436,17.6 8.715963,33.0125 9.034506,34.25 0.318542,1.2375 0.642884,2.24822 0.72076,2.24604 C 41.436284,170.99386 64.225,161.59014 92,150.09888 Z m 89.5,-44.72923 c 3.3,-5.28539 6.13339,-9.955943 6.29643,-10.379012 0.16304,-0.423069 -2.98696,-1.482878 -7,-2.355131 L 173.5,91.049592 154.72242,96.385707 c -10.32766,2.934863 -19.03949,5.598033 -19.35961,5.918153 -0.32012,0.32012 0.25479,2.29521 1.27758,4.38909 L 138.5,110.5 154,112.6427 c 23.22047,3.20996 20.50667,3.92769 27.5,-7.27305 z m -76.64975,-23.933746 2.35026,-2.181867 -4.22168,-22.377019 c -2.32192,-12.30736 -4.528804,-22.950923 -4.904187,-23.652362 -0.9495,-1.774234 -44.27,44.675569 -45.474208,48.759086 -0.494761,1.677754 -0.680413,3.269613 -0.412561,3.537466 0.267853,0.267852 6.911429,-2.478572 14.763503,-6.103164 7.852075,-3.624592 14.62141,-6.21394 15.042968,-5.754106 C 82.415903,74.123772 83.298115,79 83.954818,84.5 c 1.954697,16.37095 1.059558,15.78118 10.41729,6.863471 4.470341,-4.260134 9.185502,-8.727539 10.478142,-9.927567 z m 57.09955,11.049548 c 6.84739,-1.921369 13.30432,-3.222186 14.34872,-2.890705 1.51956,0.48229 1.77857,0.223506 1.2965,-1.295376 -0.33134,-1.043939 -2.07006,-6.375863 -3.86382,-11.848721 L 170.4698,66.5 135.70849,49.10974 c -19.11872,-9.564642 -34.96116,-17.190408 -35.20542,-16.946145 -0.677581,0.677583 8.11325,45.852963 9.11779,46.855592 0.75262,0.751185 37.97825,16.725046 39.37914,16.897951 0.275,0.03394 6.10241,-1.510317 12.9498,-3.431686 z"
				transform="translate(15.469824,8.3323684)"
			/>
		</g>
	</g>
</svg>
