<?xml version="1.0" encoding="UTF-8" standalone="no"?>

<svg
	version="1.1"
	width="200"
	height="200"
	viewBox="0 0 200 200"
	xmlns="http://www.w3.org/2000/svg"
>
	<g>
		<path
			style="display:inline;fill:#010101"
			d="M 48.538953,172.44375 C 39.442529,161.13781 32,151.46683 32,150.95269 32,150.18421 15.961588,87.157515 14.430817,81.910471 14.07726,80.69858 17.41588,78.698213 28.483544,73.490644 L 43,66.660345 V 62.167359 57.674374 L 65.918378,34.587187 C 78.523486,21.889234 89.702475,10.413594 90.760577,9.0857644 L 92.684398,6.6715288 129.5922,25.434971 c 20.29929,10.319894 37.10385,18.952348 37.34346,19.183232 0.23962,0.230883 2.31546,5.92374 4.613,12.650793 L 175.72599,69.5 l 4.887,1.053686 c 3.81449,0.822441 4.88701,1.48083 4.88701,3 0,1.070473 -0.63027,17.021314 -1.40059,35.446314 -1.30969,31.32583 -1.54168,33.72715 -3.57451,37 -1.19565,1.925 -4.56975,7.95437 -7.498,13.39859 -7.80079,14.50331 -5.77567,13.55751 -24.40621,11.39842 l -15.7563,-1.826 -32.11453,12.01449 C 83.086867,187.59348 67.834907,193 66.856617,193 65.745735,193 58.86824,185.28201 48.538953,172.44375 Z m 46.796596,6.08906 c 15.714451,-5.89282 26.086001,-10.28093 25.372041,-10.73469 -0.66417,-0.42212 -3.13421,-0.77439 -5.48897,-0.78281 -2.61441,-0.009 -4.47885,-0.52989 -4.78855,-1.33694 -0.29812,-0.77689 6.70151,-8.50515 16.98221,-18.75 L 144.90165,129.5 141.3461,120.75 c -1.95555,-4.8125 -4.05353,-8.75 -4.66219,-8.75 -0.60866,0 -23.05849,9.07007 -49.888506,20.1557 -33.046087,13.654 -48.510672,20.5087 -47.94118,21.25 10.080724,13.12204 28.603667,35.5981 29.159324,35.38244 0.408301,-0.15848 12.703202,-4.77338 27.322001,-10.25533 z M 161.98461,165.75 c -0.008,-1.2375 1.16839,-17.01065 2.61523,-35.05144 1.44684,-18.04079 2.46627,-32.95152 2.26539,-33.13496 -0.5363,-0.489751 -31.27363,-4.488532 -31.64526,-4.116899 -0.28841,0.288406 10.94086,28.569559 13.75714,34.647659 1.16357,2.51121 0.68638,3.1013 -14.89061,18.41356 -8.85098,8.70057 -15.91518,15.99673 -15.69822,16.2137 0.38689,0.38688 36.94207,4.95566 41.36172,5.16951 1.70305,0.0824 2.24626,-0.43808 2.23461,-2.14113 z m 10.54908,-14 5.7329,-10.25 1.30878,-26.5 c 1.86855,-37.834266 2.21922,-34.827737 -3.09084,-26.5 -2.45489,3.85 -4.6904,8.35 -4.9678,10 -0.2774,1.65 -1.40456,14.925 -2.50479,29.5 -1.10024,14.575 -2.23334,28.1875 -2.518,30.25 -0.28467,2.0625 -0.33208,3.75 -0.10536,3.75 0.22672,0 2.99202,-4.6125 6.14511,-10.25 z M 86.243316,127.8486 C 113.05949,116.76533 135,107.18927 135,106.56846 c 0,-1.40466 -12.91954,-33.827009 -13.83382,-34.716786 -0.3664,-0.35658 -10.10249,1.997109 -21.635762,5.230418 -11.53327,3.23331 -21.288091,5.550056 -21.677381,5.148326 -0.38929,-0.40173 -1.399233,-6.076673 -2.244319,-12.610986 C 74.763632,63.08512 73.88547,57.552136 73.657246,57.323913 73.350973,57.01764 20.924139,81.290117 19.215607,82.529201 18.965595,82.710518 34.393262,143.53345 35.505138,146.75 c 0.237651,0.6875 0.780708,1.25 1.206793,1.25 0.426085,0 22.715209,-9.06813 49.531385,-20.1514 z M 173.95926,84.565446 c 2.88804,-4.639005 5.23208,-8.801505 5.20897,-9.25 -0.0231,-0.448495 -2.66972,-1.432931 -5.88136,-2.187636 -5.72733,-1.345867 -6.13617,-1.292126 -21.31311,2.80156 -23.90411,6.447673 -22.07009,5.608777 -20.49535,9.374741 l 1.33637,3.195889 15.34261,2.142696 c 22.25514,3.108077 19.71032,3.707472 25.80187,-6.07725 z M 131.75,77.369714 c 3.07031,-0.822811 2.82373,-1.889425 -0.78206,-3.382996 -3.55366,-1.471973 -4.09225,-1.178098 -3.31165,1.806952 0.62902,2.405358 0.78092,2.463838 4.09371,1.576044 z M 98.316574,60.210633 c 1.762476,-1.955224 1.688016,-2.64351 -2.5,-23.111198 C 93.442458,25.496659 91.271075,16.002696 90.991278,16.001739 90.711481,16.000783 80.94934,25.5625 69.297632,37.25 55.72393,50.865397 47.873875,59.488007 47.447946,61.25 47.053239,62.882831 47.196258,64 47.799999,64 c 0.559249,0 7.168701,-2.979332 14.687671,-6.620737 7.518971,-3.641405 14.025067,-6.228905 14.457992,-5.75 C 77.378588,52.108168 78.280588,56.775 78.950108,62 c 2.008489,15.674446 1.129271,15.042789 9.909982,7.119639 4.201951,-3.791571 8.457368,-7.800623 9.456484,-8.909006 z m 3.771156,11.85023 C 108.36448,70.34132 114.175,68.691047 115,68.39359 c 0.91868,-0.331235 -1.01904,-1.62473 -5,-3.337665 -4.27848,-1.840951 -7.01266,-2.501659 -8,-1.933178 -2.676695,1.541159 -14.54916,13.105396 -12.912267,12.577043 0.873254,-0.281867 6.723254,-1.919384 12.999997,-3.638927 z m 53.68568,-1.53642 c 6.70472,-1.911557 12.8546,-3.220682 13.6664,-2.909168 1.09508,0.420223 0.5757,-2.102255 -2.01256,-9.774442 L 163.9387,47.5 129.83026,30.22242 c -18.75964,-9.502669 -34.22181,-17.152669 -34.360382,-17 -0.560337,0.617342 8.654072,43.222008 9.592472,44.35271 0.55666,0.670737 4.93286,2.879586 9.72488,4.908553 10.41665,4.410465 16.32712,6.995592 21.71277,9.496766 2.2,1.021711 4.69368,1.894082 5.5415,1.938603 0.84783,0.04452 7.02719,-1.483053 13.73191,-3.394609 z"
		/>
	</g>
</svg>
