<?xml version="1.0" encoding="UTF-8" standalone="no"?>

<svg
	version="1.1"
	width="200"
	height="200"
	viewBox="0 0 200 200"
	xmlns="http://www.w3.org/2000/svg"
>
	<g>
		<path
			style="display:inline;fill:#fefefe"
			d="M 62.944445,194.75 C 61.897124,193.5125 55.342495,185.3 48.378602,176.5 41.414709,167.7 34.488478,159.15 32.986977,157.5 30.682872,154.96802 29.044437,149.74181 22.484609,124 11.433332,80.63303 11.617727,81.43857 12.321875,79.603591 12.673944,78.686113 19.045551,75.051639 26.481001,71.526982 33.91645,68.002326 40.028726,64.75435 40.063836,64.309258 40.58263,57.732487 40.870713,57.370826 65.621787,32.223694 88.265575,9.2175673 90.796803,6.9497507 93.804622,6.973694 c 4.317589,0.03437 72.611758,34.196192 74.652188,37.342204 0.7791,1.201256 3.0075,6.649787 4.95198,12.107847 1.94449,5.45806 4.11048,10.288669 4.81332,10.734687 0.70284,0.446018 2.51539,0.817833 4.02789,0.826255 3.86086,0.0215 7.02378,3.426764 6.34436,6.83046 C 188.29959,76.291816 187.58407,88.3 187.0043,101.5 c -0.57977,13.2 -1.23368,28.05 -1.45315,33 -0.38672,8.72247 -0.55934,9.27753 -5.59802,18 -2.85944,4.95 -6.74875,12.03648 -8.64291,15.74773 -2.38782,4.67849 -4.15471,6.92612 -5.76181,7.32947 -1.27484,0.31997 -9.09384,-0.36426 -17.37556,-1.52051 l -15.05768,-2.10226 -28.80758,10.60638 c -15.844176,5.83352 -30.777293,11.46877 -33.184708,12.52279 -5.51254,2.41351 -5.865692,2.39911 -8.178437,-0.3336 z M 95.5,175.7708 c 6.05,-2.22312 12.02057,-4.42293 13.26793,-4.88848 l 2.26794,-0.84645 -2.01794,-2.01794 C 107.90807,166.90807 107,165.369 107,164.59777 c 0,-1.23229 14.05,-15.45572 29.78945,-30.15716 L 142.07891,129.5 139.45176,123 c -1.44494,-3.575 -2.95938,-6.84919 -3.36543,-7.27598 C 135.11439,114.70246 43.5,152.54862 43.5,153.9717 c 0,0.60285 5.53489,8.03627 12.299755,16.5187 l 12.299754,15.4226 8.200246,-3.05008 C 80.80989,181.18537 89.45,177.99392 95.5,175.7708 Z M 160.42954,159.75 C 161.41324,149.30684 164,108.922 164,104.00742 V 99.398748 L 151.75,97.84094 c -6.7375,-0.856794 -12.40315,-1.430863 -12.59033,-1.275708 -0.18719,0.155155 0.80008,2.90395 2.19393,6.108438 3.67112,8.43998 10.70838,25.54319 11.32331,27.51991 0.31158,1.00159 -0.45258,2.63597 -1.87021,4 -16.94744,16.30662 -27.71685,26.82 -27.5331,26.87852 0.80354,0.25589 32.64369,4.70166 34.39681,4.80275 1.95137,0.11252 2.22982,-0.5056 2.75913,-6.12485 z m 15.03815,-19.98781 c 0.72658,-3.21087 2.69755,-46.930284 2.14081,-47.487019 -0.25356,-0.253567 -1.13959,0.851159 -1.96894,2.454948 -1.03305,1.997699 -2.00101,9.960251 -3.07374,25.284891 -0.8612,12.3029 -1.56414,23.74502 -1.56208,25.42695 l 0.004,3.05804 1.97415,-3.23781 c 1.08578,-1.7808 2.20451,-4.2558 2.48606,-5.5 z M 88,124.33182 c 23.375,-9.64221 42.91733,-17.92623 43.42739,-18.40895 0.56177,-0.53164 -0.47697,-4.13914 -2.63473,-9.150263 -1.95916,-4.549934 -4.80721,-11.494805 -6.32899,-15.433048 -1.52178,-3.938242 -3.26115,-7.000638 -3.86527,-6.805323 -0.60412,0.195314 -7.8484,2.197041 -16.0984,4.448281 -8.25,2.25124 -17.122356,4.834585 -19.716347,5.740766 -4.47396,1.562928 -4.820863,1.553018 -6.75,-0.192828 -1.41077,-1.276729 -2.035967,-3.094683 -2.041207,-5.935443 -0.0077,-4.160542 -1.799698,-16.735597 -2.482184,-17.418084 -0.362123,-0.362123 -47.301265,21.544453 -48.711,22.733505 -0.543908,0.458764 12.639694,54.158767 14.696506,59.862437 0.360346,0.99926 1.269951,0.9308 4.231622,-0.31845 C 43.802326,142.57919 64.625,133.97402 88,124.33182 Z M 171.71456,83.25 c 3.65776,-5.889214 3.97516,-6.83668 2.48892,-7.429715 -3.46628,-1.383101 -8.23086,-0.735169 -19.32677,2.628235 -6.25719,1.896687 -13.29918,3.755795 -15.64887,4.131353 -4.0499,0.647307 -6.06541,1.915886 -4.89828,3.083019 0.6396,0.639606 24.73143,4.069958 29.68153,4.22625 3.29213,0.103945 3.77252,-0.310066 7.70347,-6.639142 z M 153.57657,68.938799 c 6.00789,-1.683661 11.29543,-3.428162 11.7501,-3.876668 0.45467,-0.448507 -0.3567,-4.148824 -1.80304,-8.222926 l -2.6297,-7.407458 -30.58537,-15.282891 -30.585367,-15.282892 0.667457,3.317018 c 0.36711,1.82436 1.84313,9.842018 3.28006,17.817018 1.43692,7.975 3.00617,15.004927 3.4872,15.622061 0.48104,0.617133 4.3548,2.595448 8.60835,4.396255 10.34428,4.379406 26.25021,11.449917 26.81031,11.91773 0.0421,0.03517 4.99212,-1.313587 11,-2.997247 z M 90.915273,63.67919 c 3.3466,-3.201446 6.084762,-6.351446 6.084804,-7 2e-4,-3.059888 -6.45983,-35.685608 -7.019021,-35.448846 -0.350284,0.148311 -8.86273,8.700651 -18.916546,19.0052 L 52.784845,58.971089 61.642422,54.83157 c 4.871668,-2.276736 9.848045,-4.782549 11.058615,-5.568473 2.533489,-1.644787 5.895747,-0.91543 7.166668,1.554628 0.476071,0.925251 1.177145,5.255709 1.557944,9.623239 0.715926,8.21123 1.175646,9.87856 2.581265,9.361822 0.452998,-0.166532 3.56176,-2.922151 6.908359,-6.123596 z m 14.327817,4.761624 c 2.98637,-0.712179 2.91675,-1.904245 -0.15818,-2.708357 -1.25501,-0.328195 -2.76999,0.383374 -4.26558,2.003504 -2.14681,2.325575 -2.170563,2.469562 -0.31933,1.935738 1.1,-0.317198 3.23439,-0.871096 4.74309,-1.230885 z"
		/>
	</g>
</svg>
